<?xml version="1.0" encoding="UTF-8" standalone="no" ?>
<!DOCTYPE svg PUBLIC "-//W3C//DTD SVG 1.1//EN" "http://www.w3.org/Graphics/SVG/1.1/DTD/svg11.dtd">
<svg xmlns="http://www.w3.org/2000/svg" xmlns:xlink="http://www.w3.org/1999/xlink" version="1.1" width="1280" height="1024" viewBox="0 0 1280 1024" xml:space="preserve">
<desc>Created with Fabric.js 5.3.0</desc>
<defs>
</defs>
<g transform="matrix(1 0 0 1 640 512)" id="background-logo"  >
<rect style="stroke: none; stroke-width: 0; stroke-dasharray: none; stroke-linecap: butt; stroke-dashoffset: 0; stroke-linejoin: miter; stroke-miterlimit: 4; fill: rgb(255,255,255); fill-opacity: 0; fill-rule: nonzero; opacity: 1;"  paint-order="stroke"  x="-640" y="-512" rx="0" ry="0" width="1280" height="1024" />
</g>
<g transform="matrix(3.05909979356624 0 0 3.0590997935662396 640.2470815195885 429.5146637340618)" id="logo-logo"  >
<g style=""  paint-order="stroke"   >
		<g transform="matrix(3.5969070154671856 0 0 3.596907015467186 0 0)"  >
<linearGradient id="SVGID_1_96919" gradientUnits="userSpaceOnUse" gradientTransform="matrix(1 0 0 1 0 0)"  x1="30.46357" y1="74.97231" x2="73.64061" y2="42.90481">
<stop offset="0%" style="stop-color:rgb(172,151,127);stop-opacity: 1"/>
<stop offset="100%" style="stop-color:rgb(250,224,162);stop-opacity: 1"/>
</linearGradient>
<path style="stroke: none; stroke-width: 1; stroke-dasharray: none; stroke-linecap: butt; stroke-dashoffset: 0; stroke-linejoin: miter; stroke-miterlimit: 4; fill: url(#SVGID_1_96919); fill-rule: nonzero; opacity: 1;"  paint-order="stroke"  transform=" translate(-48.49990499999999, -52.501729333076526)" d="M 60.17 55.82 C 58.12694502845082 55.88141994395279 56.09590756661925 56.15624679522373 54.10999999999998 56.64 L 54.11 44.16 L 60.17 44.16 Z M 67.74000000000001 34.96 L 61.67 34.96 L 61.67 55.83 C 63.75285821191405 55.9278785612866 65.80459600042971 56.37405547740533 67.74000000000001 57.15 Z M 52.61 57.01 L 52.61 41.22 L 46.54 41.22 L 46.54 58.9 C 47.19 58.67 47.85 58.449999999999996 48.5 58.24 C 49.87 57.79 51.24 57.37 52.61 57.01 Z M 37.48 61.75 L 37.48 52.91 L 31.41 52.91 L 31.41 62.87 C 32.73868283899223 62.75403669358194 34.058233552976866 62.550257975726076 35.36000000000001 62.25999999999999 C 36.07 62.11 36.78 61.95 37.48 61.75 Z M 61.64113 57.70575 C 57.26101 57.51233 52.88033 58.68225 48.50019999999999 60.11444 C 44.19623505052804 61.69358555887732 39.80919512516229 63.03636729409747 35.3587 64.13678 C 31.027177139254068 65.17082663811657 26.503038665391834 65.07866716525255 22.217219999999998 63.869080000000004 C 25.61936512187311 67.5667687305546 30.339997083176367 69.7770975964275 35.358699999999985 70.02228000000001 C 39.73932 70.21667000000001 44.11951 69.04578000000001 48.50018 67.62372 C 52.8055047470094 66.05227230225923 57.19213439253859 64.71322652478433 61.641109999999955 63.61237000000004 C 65.97238471775853 62.581116254664956 70.49489389640631 62.66946043897682 74.78258999999998 63.86908 C 71.38478408290975 60.16404818384818 66.6623704068208 57.94924483732638 61.64111 57.70575 Z M 45.04 49.04 L 38.98 49.04 L 38.98 61.35 C 41 60.77 43.019999999999996 60.09 45.04 59.4 Z" stroke-linecap="round" />
</g>
</g>
</g>
<g transform="matrix(1.9211538461538462 0 0 1.9211538461538462 639.6452764574238 713.7137886250503)" id="text-logo"  >
<g style=""  paint-order="stroke"   >
		<g transform="matrix(1 0 0 1 0 0)" id="text-logo-path-0"  >
<path style="stroke: none; stroke-width: 0; stroke-dasharray: none; stroke-linecap: butt; stroke-dashoffset: 0; stroke-linejoin: miter; stroke-miterlimit: 4; fill: rgb(216,192,147); fill-rule: nonzero; opacity: 1;"  paint-order="stroke"  transform=" translate(-292.475, 17.755000000000003)" d="M 41.81 -35.57 L 36.3 -14.09 L 30.16 -35.57 L 21.22 -35.57 L 15.08 -14.09 L 9.62 -35.57 L 0.68 -35.57 L 10.3 0 L 19.5 0 L 25.69 -20.7 L 31.88 0 L 41.08 0 L 50.7 -35.57 Z M 61.31 -35.57 L 61.31 0 L 69.99 0 L 69.99 -35.57 Z M 92.92 -8.16 L 92.92 -35.57 L 84.24 -35.57 L 84.24 0 L 106.7 0 L 106.7 -8.16 Z M 126.98 -8.16 L 126.98 -35.57 L 118.3 -35.57 L 118.3 0 L 140.76 0 L 140.76 -8.16 Z M 176.9 0 L 186.16 0 L 173.11 -35.57 L 163.85 -35.57 L 150.85 0 L 160.11 0 L 162.4 -6.19 L 174.62 -6.19 Z M 165.36 -14.4 L 168.53 -22.98 L 171.6 -14.4 Z M 212.78 -35.57 L 205.56 -22.2 L 198.28 -35.57 L 188.5 -35.57 L 201.19 -12.06 L 201.19 0 L 209.87 0 L 209.87 -11.96 L 222.56 -35.57 Z M 266.71 0.73 C 273.31 0.73 279.71 -2.96 279.71 -10.09 C 279.71 -17.11 274.2 -20.02 268.22 -21.84 C 266.6 -22.36 265.41 -22.83 264.63 -23.19 C 263.54 -23.71 262.76 -24.28 262.76 -25.58 C 262.76 -27.09 264.68 -27.66 265.88 -27.66 C 268.68 -27.66 270.09 -26.42 271.28 -23.97 L 278.67 -28.29 C 276.12 -33.54 271.7 -36.24 265.88 -36.24 C 259.53 -36.24 254.12 -32.14 254.12 -25.58 C 254.12 -18.88 258.91 -16.22 264.68 -14.51 C 266.5 -13.99 267.8 -13.52 268.68 -13.16 C 269.88 -12.69 271.08 -12.06 271.08 -10.61 C 271.08 -8.68 268.48 -7.75 266.92 -7.75 C 263.54 -7.75 261.2 -9.05 259.9 -12.27 L 252.62 -8.01 C 254.96 -2.03 260.47 0.73 266.71 0.73 Z M 307.16 0.73 C 317.36 0.73 325.47 -7.54 325.47 -17.63 C 325.47 -27.87 317.3 -35.93 307.16 -35.93 C 296.97 -35.93 288.81 -27.72 288.81 -17.63 C 288.81 -7.59 297.02 0.73 307.16 0.73 Z M 297.44 -17.63 C 297.44 -22.93 301.91 -27.3 307.16 -27.3 C 312.52 -27.3 316.78 -22.93 316.78 -17.63 C 316.78 -12.32 312.52 -7.96 307.16 -7.96 C 301.86 -7.96 297.44 -12.38 297.44 -17.63 Z M 345.75 -8.16 L 345.75 -35.57 L 337.06 -35.57 L 337.06 0 L 359.53 0 L 359.53 -8.16 Z M 399.1 -11.96 L 399.1 -35.57 L 390.47 -35.57 L 390.47 -11.96 C 390.47 -8.94 387.56 -7.9 384.96 -7.9 C 382.56 -7.9 379.5 -9.15 379.5 -11.96 L 379.5 -35.57 L 370.86 -35.57 L 370.86 -11.96 C 370.86 -4.06 377.57 0.73 384.96 0.73 C 392.39 0.73 399.1 -4.21 399.1 -11.96 Z M 436.85 -27.35 L 436.85 -35.57 L 410.28 -35.57 L 410.28 -27.35 L 419.28 -27.35 L 419.28 0 L 427.91 0 L 427.91 -27.35 Z M 448.34 -35.57 L 448.34 0 L 457.03 0 L 457.03 -35.57 Z M 487.03 0.73 C 497.22 0.73 505.34 -7.54 505.34 -17.63 C 505.34 -27.87 497.17 -35.93 487.03 -35.93 C 476.84 -35.93 468.68 -27.72 468.68 -17.63 C 468.68 -7.59 476.89 0.73 487.03 0.73 Z M 477.31 -17.63 C 477.31 -22.93 481.78 -27.3 487.03 -27.3 C 492.39 -27.3 496.65 -22.93 496.65 -17.63 C 496.65 -12.32 492.39 -7.96 487.03 -7.96 C 481.73 -7.96 477.31 -12.38 477.31 -17.63 Z M 537.16 -35.57 L 537.16 -17.47 L 525.62 -35.57 L 516.93 -35.57 L 516.93 0 L 525.62 0 L 525.62 -20.33 L 538.62 0 L 545.84 0 L 545.84 -35.57 Z M 571.27 0.73 C 577.88 0.73 584.27 -2.96 584.27 -10.09 C 584.27 -17.11 578.76 -20.02 572.78 -21.84 C 571.17 -22.36 569.97 -22.83 569.19 -23.19 C 568.1 -23.71 567.32 -24.28 567.32 -25.58 C 567.32 -27.09 569.24 -27.66 570.44 -27.66 C 573.25 -27.66 574.65 -26.42 575.85 -23.97 L 583.23 -28.29 C 580.68 -33.54 576.26 -36.24 570.44 -36.24 C 564.1 -36.24 558.69 -32.14 558.69 -25.58 C 558.69 -18.88 563.47 -16.22 569.24 -14.51 C 571.06 -13.99 572.36 -13.52 573.25 -13.16 C 574.44 -12.69 575.64 -12.06 575.64 -10.61 C 575.64 -8.68 573.04 -7.75 571.48 -7.75 C 568.1 -7.75 565.76 -9.05 564.46 -12.27 L 557.18 -8.01 C 559.52 -2.03 565.03 0.73 571.27 0.73 Z" stroke-linecap="round" />
</g>
</g>
</g>
<g transform="matrix(1 0 0 1 325.12829583425076 397.85464395329444)" id="tagline-388b3fff-24f6-422c-a548-83c07fef252c-logo"  >
<g style=""  paint-order="stroke"   >
		<g transform="matrix(1 0 0 1 0 0)" id="tagline-388b3fff-24f6-422c-a548-83c07fef252c-logo-path-0"  >
<path style="stroke: none; stroke-width: 0; stroke-dasharray: none; stroke-linecap: butt; stroke-dashoffset: 0; stroke-linejoin: miter; stroke-miterlimit: 4; fill: rgb(216,192,147); fill-rule: nonzero; opacity: 1;"  paint-order="stroke"  transform=" translate(0, 0)" d="" stroke-linecap="round" />
</g>
</g>
</g>
</svg>